<?xml version="1.0" encoding="UTF-8"?>
<svg id="Layer_1" data-name="Layer 1" xmlns="http://www.w3.org/2000/svg" viewBox="0 0 142 29">
  <defs>
    <style>
      .cls-1 {
        fill: none;
        stroke: #fff;
        stroke-miterlimit: 100;
        stroke-width: 4px;
      }

      .cls-2 {
        fill: #fff;
        stroke-width: 0px;
      }
    </style>
  </defs>
  <path class="cls-1" d="M9.06,6.07h9.58c3.52,0,6.38,2.86,6.38,6.38v9.58"/>
  <rect class="cls-2" x="3.25" y="4.61" width="2.9" height="2.9"/>
  <rect class="cls-2" x="3.25" y="11.87" width="2.9" height="2.9"/>
  <rect class="cls-2" x="3.25" y="18.4" width="2.9" height="2.9"/>
  <rect class="cls-2" x="3.25" y="24.93" width="2.9" height="2.9"/>
  <rect class="cls-2" x="9.78" y="24.93" width="2.9" height="2.9" transform="translate(-15.14 37.61) rotate(-90)"/>
  <rect class="cls-2" x="16.31" y="24.93" width="2.9" height="2.9" transform="translate(-8.61 44.14) rotate(-90)"/>
  <rect class="cls-2" x="23.57" y="24.93" width="2.9" height="2.9" transform="translate(-1.36 51.39) rotate(-90)"/>
  <rect class="cls-2" x="16.31" y="11.87" width="2.9" height="2.9" rx="1.45" ry="1.45"/>
  <g>
    <path class="cls-2" d="M44.45,13.75c-.06.08-.11.13-.17.18-.06.04-.13.06-.23.06-.1,0-.22-.04-.34-.13-.12-.09-.28-.18-.46-.28-.18-.1-.41-.2-.67-.28s-.59-.13-.97-.13c-.52,0-.97.09-1.36.27-.39.18-.72.45-.98.79s-.46.76-.6,1.25c-.13.49-.2,1.03-.2,1.64s.07,1.19.22,1.69c.14.49.35.9.61,1.24.26.33.58.59.96.76.38.17.8.26,1.26.26s.81-.05,1.1-.16.53-.22.72-.36c.19-.13.35-.25.47-.36.13-.11.25-.16.38-.16.15,0,.27.06.35.18l.52.67c-.23.28-.48.52-.77.72s-.6.37-.93.5-.68.23-1.05.29-.74.09-1.11.09c-.65,0-1.26-.12-1.82-.36-.56-.24-1.05-.59-1.46-1.05s-.74-1.02-.97-1.69c-.23-.67-.35-1.43-.35-2.28,0-.78.11-1.5.32-2.16.22-.66.53-1.23.95-1.71.42-.48.93-.85,1.54-1.12s1.31-.4,2.1-.4c.74,0,1.38.12,1.94.36.56.24,1.06.57,1.49,1.01l-.48.66Z"/>
    <path class="cls-2" d="M46.76,13.37c.58-.56,1.2-.97,1.87-1.25.67-.27,1.41-.41,2.22-.41.58,0,1.1.1,1.56.29.45.19.84.46,1.14.8.31.34.54.76.7,1.25s.24,1.02.24,1.61v6.68h-.81c-.18,0-.32-.03-.41-.09-.1-.06-.17-.17-.23-.34l-.21-.99c-.27.25-.54.48-.8.68-.26.2-.54.36-.83.5-.29.13-.6.24-.92.31s-.69.11-1.09.11-.79-.06-1.14-.17-.67-.28-.93-.51c-.26-.23-.47-.51-.63-.86-.15-.35-.23-.76-.23-1.23,0-.41.11-.81.34-1.19.23-.38.59-.72,1.1-1.02.51-.29,1.17-.54,1.99-.73.82-.19,1.82-.3,3.01-.32v-.81c0-.81-.18-1.42-.53-1.84s-.86-.62-1.54-.62c-.45,0-.83.06-1.14.17-.31.11-.57.24-.79.38-.22.14-.42.27-.58.38-.16.11-.32.17-.48.17-.12,0-.23-.03-.32-.1-.09-.06-.17-.15-.23-.24l-.33-.59ZM52.69,17.64c-.85.03-1.57.09-2.16.2s-1.08.25-1.45.42c-.38.17-.65.38-.81.61s-.25.5-.25.78.04.51.13.71.21.36.37.49c.15.13.34.22.55.28.21.06.44.09.68.09.32,0,.62-.03.89-.1s.52-.16.76-.28c.24-.12.46-.27.68-.44.22-.17.43-.37.63-.59v-2.17Z"/>
    <path class="cls-2" d="M63.36,13.62c-.08.15-.21.23-.38.23-.1,0-.22-.04-.35-.11-.13-.08-.29-.16-.48-.25s-.41-.18-.68-.26-.57-.12-.93-.12c-.31,0-.59.04-.83.12-.25.08-.46.19-.63.32-.18.14-.31.3-.4.48s-.14.38-.14.59c0,.27.08.49.23.67s.36.33.61.46c.25.13.54.25.87.35.32.1.65.21,1,.32.34.11.67.24,1,.38.32.14.61.31.87.52.25.21.46.46.61.76.15.3.23.66.23,1.08,0,.48-.09.93-.26,1.33-.17.41-.43.76-.76,1.06s-.75.53-1.24.71-1.05.26-1.69.26c-.73,0-1.39-.12-1.98-.36s-1.09-.54-1.51-.91l.43-.7c.05-.09.12-.16.2-.21.08-.05.17-.07.29-.07.12,0,.25.05.39.14.14.1.3.2.5.32.2.12.43.22.72.32.28.1.63.14,1.05.14.36,0,.67-.05.94-.14s.49-.22.67-.38.31-.34.4-.55.13-.43.13-.66c0-.29-.08-.53-.23-.72-.15-.19-.36-.35-.61-.48-.25-.13-.54-.25-.87-.35s-.66-.2-1-.31c-.34-.11-.67-.24-1-.38-.33-.14-.62-.32-.87-.53-.25-.21-.46-.48-.61-.79-.15-.31-.23-.69-.23-1.14,0-.4.08-.78.25-1.15.17-.37.41-.69.72-.97.32-.28.7-.5,1.17-.67.46-.17.99-.25,1.58-.25.69,0,1.3.11,1.85.33.55.22,1.02.51,1.42.89l-.41.67Z"/>
    <path class="cls-2" d="M69.41,22.51c-.82,0-1.46-.23-1.9-.69-.44-.46-.67-1.12-.67-1.99v-6.39h-1.26c-.11,0-.2-.03-.28-.1-.08-.06-.11-.17-.11-.3v-.73l1.71-.22.42-3.23c.02-.1.07-.19.14-.25.07-.07.17-.1.28-.1h.93v3.6h3.02v1.33h-3.02v6.27c0,.44.11.77.32.98.21.21.49.32.82.32.19,0,.36-.03.5-.08.14-.05.26-.11.37-.17.1-.06.19-.12.26-.17.07-.05.14-.08.19-.08.1,0,.18.06.26.17l.54.88c-.32.3-.7.53-1.14.7-.45.17-.91.25-1.38.25Z"/>
    <path class="cls-2" d="M75.34,13.99c.33-.71.74-1.27,1.22-1.68.48-.4,1.07-.6,1.76-.6.22,0,.43.02.63.07.2.05.38.12.54.23l-.13,1.37c-.04.17-.14.26-.31.26-.1,0-.24-.02-.42-.06-.19-.04-.39-.06-.63-.06-.33,0-.62.05-.88.14-.26.1-.49.24-.69.43-.2.19-.39.42-.55.7s-.31.6-.44.95v6.6h-1.85v-10.45h1.05c.2,0,.34.04.41.11s.13.21.15.39l.12,1.59Z"/>
    <path class="cls-2" d="M80.67,13.37c.58-.56,1.2-.97,1.87-1.25.67-.27,1.41-.41,2.22-.41.58,0,1.1.1,1.56.29.45.19.84.46,1.14.8.31.34.54.76.7,1.25s.24,1.02.24,1.61v6.68h-.81c-.18,0-.32-.03-.41-.09-.1-.06-.17-.17-.23-.34l-.21-.99c-.27.25-.54.48-.8.68-.26.2-.54.36-.83.5-.29.13-.6.24-.92.31-.33.07-.69.11-1.09.11s-.79-.06-1.14-.17-.67-.28-.93-.51c-.26-.23-.47-.51-.63-.86-.15-.35-.23-.76-.23-1.23,0-.41.11-.81.34-1.19.23-.38.59-.72,1.1-1.02.51-.29,1.17-.54,1.99-.73.82-.19,1.82-.3,3.01-.32v-.81c0-.81-.17-1.42-.53-1.84s-.86-.62-1.54-.62c-.45,0-.83.06-1.14.17-.31.11-.57.24-.79.38-.22.14-.42.27-.58.38-.16.11-.32.17-.48.17-.12,0-.23-.03-.32-.1-.09-.06-.17-.15-.23-.24l-.33-.59ZM86.6,17.64c-.85.03-1.57.09-2.16.2s-1.08.25-1.45.42-.65.38-.81.61c-.17.23-.25.5-.25.78s.04.51.13.71c.09.2.21.36.37.49.16.13.34.22.55.28.21.06.43.09.68.09.32,0,.62-.03.89-.1.27-.07.52-.16.76-.28.24-.12.46-.27.68-.44.22-.17.43-.37.63-.59v-2.17Z"/>
  </g>
  <g>
    <path class="cls-2" d="M95.58,12.89c.42-.45.9-.81,1.43-1.1.53-.29,1.17-.43,1.9-.43.56,0,1.07.12,1.55.37.47.25.88.6,1.23,1.07.34.47.61,1.04.81,1.72s.29,1.45.29,2.3c0,.8-.11,1.55-.33,2.23-.22.68-.54,1.27-.94,1.77-.4.5-.88.89-1.44,1.17-.56.28-1.18.42-1.86.42-.56,0-1.02-.08-1.4-.24-.38-.16-.72-.37-1.03-.64v4.1h-3.2v-14.09h1.98c.4,0,.66.18.78.54l.24.78ZM95.78,19.36c.24.26.5.45.78.56.28.11.58.17.89.17s.57-.06.82-.18c.25-.12.46-.3.64-.56.18-.26.33-.59.43-1.01.1-.41.15-.91.15-1.5s-.04-1.04-.12-1.42c-.08-.38-.2-.7-.34-.93-.15-.24-.33-.41-.53-.51s-.44-.15-.69-.15c-.47,0-.85.09-1.15.26-.3.17-.59.42-.87.75v4.54Z"/>
    <path class="cls-2" d="M107.43,13.22c.33-.58.71-1.03,1.14-1.36s.92-.5,1.48-.5c.48,0,.87.11,1.17.34l-.21,2.35c-.03.15-.09.25-.17.31-.08.06-.19.08-.33.08-.05,0-.13,0-.22-.01-.09,0-.18-.02-.28-.03-.1-.01-.19-.02-.29-.03-.1-.01-.19-.02-.27-.02-.47,0-.84.12-1.12.37s-.51.59-.71,1.03v6.5h-3.2v-10.69h1.9c.16,0,.29.01.4.04s.2.07.27.13.13.14.17.23c.04.1.07.21.1.35l.17.9Z"/>
    <path class="cls-2" d="M114.75,17.49c.1.89.37,1.54.81,1.94.44.4,1.01.6,1.7.6.37,0,.69-.04.96-.13.27-.09.51-.19.72-.3.21-.11.4-.21.58-.3.18-.09.36-.13.55-.13.25,0,.45.09.58.28l.93,1.14c-.33.38-.69.69-1.07.92-.38.24-.77.42-1.18.56s-.8.23-1.21.28c-.4.05-.79.08-1.15.08-.75,0-1.45-.12-2.11-.37-.66-.24-1.23-.61-1.72-1.09-.49-.48-.88-1.08-1.17-1.79s-.43-1.55-.43-2.5c0-.71.12-1.39.37-2.03.24-.64.59-1.2,1.05-1.68.46-.48,1.01-.86,1.66-1.14.65-.28,1.38-.42,2.2-.42.71,0,1.36.11,1.94.33.59.22,1.09.54,1.52.96.42.42.75.93.99,1.54s.36,1.3.36,2.07c0,.24-.01.44-.03.59-.02.15-.06.27-.11.36-.05.09-.13.15-.22.19-.09.03-.21.05-.36.05h-6.17ZM118.77,15.63c0-.25-.03-.5-.1-.74-.07-.24-.17-.46-.32-.64-.15-.19-.34-.34-.58-.46-.24-.12-.53-.18-.88-.18-.61,0-1.08.17-1.42.52-.34.35-.57.85-.68,1.5h3.98Z"/>
    <path class="cls-2" d="M130.03,13.91c-.08.13-.17.22-.26.28-.09.06-.21.08-.36.08s-.3-.03-.45-.1-.31-.14-.49-.21c-.17-.08-.37-.15-.59-.21s-.47-.1-.75-.1c-.41,0-.72.08-.93.23-.22.15-.33.37-.33.64,0,.2.07.36.21.5.14.13.33.25.56.35.23.1.5.19.79.28s.6.19.91.3.61.24.91.39c.3.15.56.33.79.55.23.22.42.48.56.79.14.31.21.68.21,1.11,0,.53-.1,1.02-.29,1.46-.19.45-.48.83-.86,1.16s-.85.57-1.41.75c-.56.18-1.2.27-1.93.27-.37,0-.73-.03-1.09-.1-.36-.07-.72-.16-1.06-.28-.34-.12-.65-.26-.94-.42s-.54-.33-.74-.52l.74-1.18c.08-.14.19-.25.31-.33s.29-.12.49-.12c.19,0,.35.04.5.12.15.08.31.17.48.27.17.1.37.19.6.27.23.08.52.12.87.12.25,0,.46-.03.63-.08s.31-.12.41-.21c.1-.09.18-.19.23-.3.05-.11.07-.22.07-.34,0-.21-.07-.39-.22-.53-.14-.14-.33-.26-.57-.36-.23-.1-.5-.19-.8-.28-.3-.09-.6-.18-.91-.29-.31-.11-.61-.24-.91-.4-.3-.16-.57-.35-.8-.59s-.42-.53-.57-.87c-.14-.34-.22-.76-.22-1.25,0-.45.09-.88.26-1.29.17-.41.44-.77.79-1.08.35-.31.79-.56,1.32-.74s1.15-.27,1.86-.27c.38,0,.76.03,1.12.1.36.07.7.17,1.02.29.32.12.6.27.87.44.26.17.49.35.69.55l-.72,1.12Z"/>
    <path class="cls-2" d="M139.22,13.91c-.08.13-.17.22-.26.28-.09.06-.21.08-.36.08s-.3-.03-.45-.1-.31-.14-.49-.21c-.17-.08-.37-.15-.59-.21s-.47-.1-.75-.1c-.41,0-.72.08-.93.23-.22.15-.33.37-.33.64,0,.2.07.36.21.5.14.13.33.25.56.35.23.1.5.19.79.28s.6.19.91.3.61.24.91.39c.3.15.56.33.79.55.23.22.42.48.56.79.14.31.21.68.21,1.11,0,.53-.1,1.02-.29,1.46-.19.45-.48.83-.86,1.16s-.85.57-1.41.75c-.56.18-1.2.27-1.93.27-.37,0-.73-.03-1.09-.1-.36-.07-.72-.16-1.06-.28-.34-.12-.65-.26-.94-.42s-.54-.33-.74-.52l.74-1.18c.08-.14.19-.25.31-.33s.29-.12.49-.12c.19,0,.35.04.5.12.15.08.31.17.48.27.17.1.37.19.6.27.23.08.52.12.87.12.25,0,.46-.03.63-.08s.31-.12.41-.21c.1-.09.18-.19.23-.3.05-.11.07-.22.07-.34,0-.21-.07-.39-.22-.53-.14-.14-.33-.26-.57-.36-.23-.1-.5-.19-.8-.28-.3-.09-.6-.18-.91-.29-.31-.11-.61-.24-.91-.4-.3-.16-.57-.35-.8-.59s-.42-.53-.57-.87c-.14-.34-.22-.76-.22-1.25,0-.45.09-.88.26-1.29.17-.41.44-.77.79-1.08.35-.31.79-.56,1.32-.74s1.15-.27,1.86-.27c.38,0,.76.03,1.12.1.36.07.7.17,1.02.29.32.12.6.27.87.44.26.17.49.35.69.55l-.72,1.12Z"/>
  </g>
</svg>